<svg id="svg" version="1.1" xmlns="http://www.w3.org/2000/svg" xmlns:xlink="http://www.w3.org/1999/xlink" width="400" height="400" viewBox="0, 0, 400,400"><g id="svgg"><path id="path0" d="M333.400 90.246 C 329.082 91.522,326.990 92.558,325.666 94.076 C 324.017 95.968,321.888 97.232,318.000 98.629 C 314.524 99.878,311.587 101.679,309.600 103.781 C 307.747 105.741,304.166 107.688,300.052 108.972 C 296.465 110.092,294.126 111.517,292.938 113.305 C 291.779 115.052,289.824 116.197,283.707 118.715 C 278.724 120.765,277.777 121.308,276.069 123.089 C 274.004 125.243,272.038 126.418,268.419 127.661 C 264.130 129.134,258.272 134.102,254.791 139.217 C 252.780 142.172,252.021 148.945,252.999 155.200 C 253.932 161.167,254.173 168.767,253.620 174.802 C 252.978 181.812,252.345 183.648,248.984 188.257 C 248.640 188.729,247.365 191.699,246.150 194.857 C 243.491 201.771,242.886 202.803,240.603 204.315 C 237.954 206.069,236.228 207.691,234.263 210.272 C 231.775 213.540,231.636 213.639,225.463 216.564 C 221.525 218.430,219.300 219.759,217.761 221.166 C 213.647 224.926,209.921 225.712,196.000 225.755 C 181.161 225.801,172.693 224.196,168.846 220.610 C 166.699 218.608,163.975 216.950,160.609 215.595 C 157.824 214.475,155.656 212.649,154.238 210.229 C 153.684 209.283,152.001 207.420,150.499 206.088 C 147.608 203.524,147.514 203.364,144.184 195.301 C 143.162 192.827,141.914 190.196,141.410 189.453 C 136.452 182.147,134.849 171.009,136.539 155.600 C 136.935 151.989,136.942 150.054,136.572 146.600 L 136.099 142.200 136.047 146.800 C 136.018 149.330,135.818 152.485,135.603 153.810 C 134.808 158.707,134.018 167.228,133.605 175.368 C 133.175 183.820,132.241 192.113,131.696 192.304 C 131.533 192.361,129.600 193.658,127.400 195.185 C 116.026 203.082,112.008 205.652,111.516 205.342 C 111.232 205.163,109.380 204.977,107.400 204.929 C 103.013 204.822,102.287 204.690,102.090 203.965 C 100.879 199.501,97.755 195.532,94.222 193.969 C 92.299 193.118,91.265 191.746,90.241 188.688 C 88.890 184.651,84.713 178.800,83.182 178.800 C 83.000 178.800,82.448 178.082,81.954 177.204 C 81.461 176.327,80.979 175.687,80.883 175.783 C 80.591 176.076,82.445 178.894,84.184 180.800 C 86.470 183.306,87.387 184.922,88.556 188.503 C 89.821 192.378,91.061 194.510,93.644 197.247 C 95.807 199.538,98.293 204.219,99.390 208.065 C 100.111 210.592,101.758 213.102,103.580 214.449 C 105.418 215.807,106.458 217.664,108.982 224.091 C 111.073 229.416,111.465 230.121,113.074 231.439 C 115.365 233.316,116.433 234.971,118.213 239.400 C 120.007 243.861,120.795 245.173,123.485 248.176 C 125.762 250.717,127.162 253.313,128.409 257.308 C 129.350 260.323,130.897 262.721,133.138 264.639 C 134.959 266.198,137.186 270.424,138.810 275.400 C 139.967 278.945,140.453 279.677,142.795 281.396 C 144.909 282.948,145.696 284.319,148.651 291.600 C 150.168 295.338,150.866 296.537,152.376 298.000 C 155.043 300.584,155.836 301.867,157.230 305.855 C 158.748 310.197,160.005 312.427,161.884 314.112 C 164.033 316.039,166.170 319.578,167.173 322.869 C 168.620 327.619,169.635 329.561,171.384 330.932 C 174.489 333.366,175.694 335.397,178.012 342.097 C 179.677 346.913,179.956 347.355,181.973 348.390 C 184.070 349.465,186.323 351.889,187.638 354.485 C 189.373 357.907,189.152 357.855,198.100 356.953 L 200.400 356.721 202.096 353.461 C 203.354 351.041,204.548 349.478,206.726 347.400 C 209.838 344.431,211.556 341.575,213.794 335.651 C 214.887 332.757,216.114 331.192,219.499 328.380 C 220.269 327.739,220.902 326.698,221.200 325.580 C 222.983 318.881,225.782 313.494,228.283 311.948 C 229.937 310.926,231.438 308.407,232.215 305.350 C 233.164 301.613,235.327 297.621,237.741 295.148 C 240.233 292.596,241.407 290.467,243.005 285.600 C 244.008 282.545,244.375 281.954,246.618 279.778 C 249.207 277.266,249.902 275.982,252.885 268.200 C 253.956 265.406,254.498 264.619,257.158 262.000 C 259.873 259.326,260.285 258.718,260.954 256.400 C 262.348 251.565,264.622 247.252,266.982 244.966 C 269.321 242.701,270.753 240.252,271.768 236.783 C 272.619 233.877,274.312 231.023,276.578 228.674 C 278.492 226.690,280.997 222.153,282.163 218.558 C 283.081 215.730,284.895 213.004,286.584 211.916 C 288.176 210.891,288.677 209.949,291.432 202.800 C 293.208 198.194,293.553 197.611,295.809 195.400 C 298.896 192.375,299.370 191.635,300.424 188.195 C 301.662 184.151,304.246 179.394,306.035 177.863 C 307.958 176.217,310.179 172.565,311.023 169.660 C 312.010 166.267,313.333 163.955,315.583 161.693 C 317.619 159.647,318.661 157.730,321.649 150.537 C 322.701 148.006,323.463 146.898,325.596 144.800 C 328.012 142.424,328.353 141.875,329.555 138.418 C 331.453 132.964,333.027 130.047,335.178 128.000 C 337.523 125.768,338.872 123.650,339.764 120.800 C 340.738 117.688,341.614 115.647,342.766 113.800 C 345.366 109.631,347.541 105.324,347.834 103.761 C 348.173 101.952,347.437 100.238,345.358 98.000 C 344.439 97.010,343.162 95.300,342.521 94.200 C 340.376 90.521,337.172 89.132,333.400 90.246 " stroke="none" fill="#892fb0" fill-rule="evenodd"></path><path id="path1" d="M0.000 200.000 L 0.000 400.000 200.000 400.000 L 400.000 400.000 400.000 200.000 L 400.000 0.000 200.000 0.000 L 0.000 0.000 0.000 200.000 M339.793 85.406 C 350.597 87.694,355.194 95.964,353.039 109.236 C 352.207 114.363,350.623 116.848,346.911 118.852 C 345.539 119.592,344.810 121.285,343.807 126.057 C 343.011 129.843,340.482 134.024,337.876 135.861 C 336.024 137.166,335.108 139.010,333.342 144.986 C 332.631 147.389,330.572 149.930,327.894 151.709 C 327.221 152.155,326.659 153.044,326.375 154.109 C 325.766 156.392,323.783 161.726,322.590 164.291 C 321.658 166.296,318.991 168.800,317.789 168.800 C 316.871 168.800,316.311 169.985,315.382 173.896 C 313.795 180.580,311.656 184.323,308.594 185.776 C 306.911 186.575,305.519 189.085,304.809 192.600 C 303.937 196.917,302.108 200.104,298.728 203.200 C 297.270 204.536,294.806 209.520,294.796 211.155 C 294.782 213.515,291.580 217.649,288.910 218.755 C 287.864 219.188,287.584 219.605,287.177 221.336 C 285.142 229.984,282.797 234.400,279.304 236.163 C 277.555 237.045,276.846 238.246,276.172 241.467 C 274.904 247.524,272.547 251.963,269.834 253.400 C 268.076 254.331,266.579 256.934,265.744 260.513 C 264.934 263.978,263.929 265.613,261.061 268.131 L 258.462 270.413 256.775 275.507 C 254.272 283.068,253.010 285.011,249.897 286.096 C 248.486 286.588,248.260 287.033,247.243 291.312 C 245.600 298.234,243.468 302.016,240.288 303.651 C 238.497 304.572,237.589 306.355,236.611 310.867 C 235.685 315.147,232.186 320.706,229.979 321.407 C 229.186 321.658,227.000 326.319,226.605 328.600 C 226.076 331.649,224.555 334.075,221.964 336.000 L 219.541 337.800 217.572 343.568 C 215.070 350.896,214.275 352.128,211.112 353.578 C 209.421 354.354,208.331 355.605,207.679 357.518 C 206.207 361.833,203.147 363.346,195.503 363.538 C 187.265 363.746,183.766 362.291,181.804 357.845 C 181.045 356.126,180.581 355.662,178.559 354.599 C 175.972 353.239,173.937 350.521,173.412 347.725 C 172.880 344.889,170.857 341.053,169.389 340.097 C 167.018 338.553,164.524 334.300,163.453 329.972 C 162.249 325.110,161.545 323.792,159.630 322.816 C 156.534 321.236,154.119 316.681,152.672 309.691 C 151.953 306.217,151.932 306.183,149.873 305.149 C 146.349 303.381,145.801 302.501,143.181 294.400 C 141.471 289.111,141.189 288.530,139.977 287.800 C 137.195 286.124,135.666 284.150,134.785 281.093 C 133.425 276.376,132.047 273.738,130.362 272.622 C 127.524 270.744,124.914 266.071,123.981 261.194 C 123.289 257.584,122.703 256.619,120.251 255.050 C 116.965 252.948,115.551 250.307,113.602 242.631 C 112.596 238.668,112.591 238.660,110.808 237.717 C 107.869 236.163,105.200 232.617,105.200 230.266 C 105.200 228.285,102.288 222.761,100.082 220.557 C 96.960 217.439,96.606 216.826,95.470 212.584 C 94.144 207.629,93.228 205.987,91.008 204.583 C 88.113 202.753,86.080 199.050,84.806 193.285 C 83.930 189.326,83.306 188.274,81.189 187.194 C 78.397 185.770,75.582 180.262,73.986 173.103 C 73.503 170.934,73.359 170.740,71.422 169.647 C 69.033 168.299,67.525 166.284,66.598 163.200 C 65.155 158.404,63.858 155.817,61.986 154.000 C 58.508 150.624,57.192 148.257,56.367 143.899 C 55.707 140.410,54.187 137.712,52.357 136.778 C 49.405 135.272,46.754 130.479,45.621 124.600 C 44.999 121.374,44.484 120.459,42.808 119.604 C 36.342 116.305,34.132 101.432,38.718 92.068 C 43.253 82.804,65.408 82.734,70.184 91.968 C 70.885 93.325,72.603 94.168,76.400 95.021 C 81.060 96.068,85.599 98.705,87.063 101.215 C 87.917 102.680,90.848 104.274,95.000 105.533 C 98.800 106.685,100.161 107.611,101.784 110.147 C 102.744 111.648,103.503 112.383,104.282 112.563 C 111.604 114.256,118.729 118.185,119.412 120.905 C 119.725 122.154,121.171 122.964,124.600 123.811 C 128.947 124.885,133.104 127.285,135.112 129.879 C 135.710 130.652,136.813 132.030,137.561 132.942 C 138.310 133.854,139.351 135.590,139.875 136.800 C 140.398 138.010,141.433 140.170,142.175 141.600 C 142.917 143.030,144.008 145.763,144.601 147.673 L 145.678 151.146 144.812 153.473 C 144.336 154.753,143.352 156.880,142.626 158.200 C 140.201 162.609,140.279 171.603,142.768 174.701 C 144.689 177.091,147.412 184.067,148.194 188.600 C 148.634 191.154,151.294 198.550,151.977 199.119 C 152.320 199.405,153.458 200.187,154.508 200.858 C 156.789 202.317,158.521 204.708,159.489 207.737 C 160.300 210.272,160.510 210.417,165.000 211.520 C 168.215 212.309,171.571 213.388,175.533 214.904 C 176.724 215.359,178.610 216.582,179.801 217.670 C 183.609 221.151,195.558 222.425,205.400 220.400 C 207.538 219.960,209.341 219.600,209.406 219.600 C 209.471 219.600,209.980 218.822,210.537 217.872 C 211.843 215.642,214.020 214.158,217.671 213.008 C 223.821 211.071,226.831 209.023,230.679 204.156 C 231.382 203.266,232.732 202.012,233.679 201.369 C 238.260 198.257,241.061 193.770,241.807 188.348 C 241.964 187.207,242.444 185.088,242.873 183.637 C 243.302 182.187,244.011 179.306,244.448 177.236 C 244.885 175.166,245.500 172.857,245.815 172.103 C 246.500 170.463,246.023 162.836,244.993 158.950 C 242.362 149.034,243.245 141.342,247.377 138.190 C 248.093 137.644,249.777 135.533,251.119 133.499 C 255.534 126.807,257.646 125.253,264.776 123.445 C 268.980 122.380,268.930 122.411,270.018 120.162 C 271.064 118.002,273.233 116.307,276.129 115.387 C 281.490 113.683,284.065 112.353,286.335 110.116 C 289.539 106.958,290.972 106.120,294.817 105.153 C 299.224 104.045,300.987 103.118,302.155 101.292 C 304.190 98.111,308.726 95.427,313.800 94.401 C 317.753 93.602,318.359 93.254,319.409 91.183 C 321.312 87.427,324.375 85.888,331.200 85.259 C 336.668 84.755,336.726 84.756,339.793 85.406 M202.129 133.447 C 203.048 133.772,205.564 134.475,207.720 135.009 C 216.951 137.296,221.775 141.448,227.425 151.967 C 228.557 154.075,230.042 156.795,230.724 158.012 C 232.708 161.548,233.580 169.025,232.637 174.411 C 231.647 180.071,231.380 180.845,229.438 183.680 C 228.480 185.079,227.134 187.568,226.446 189.212 C 224.963 192.756,223.007 195.317,220.000 197.651 C 218.790 198.591,217.022 200.059,216.071 200.914 C 209.355 206.956,187.151 208.234,176.573 203.187 C 172.066 201.036,165.435 194.500,163.195 190.000 C 162.703 189.010,161.702 187.379,160.971 186.376 C 155.692 179.124,154.864 164.700,159.217 155.800 C 161.496 151.140,169.342 140.546,171.552 139.144 C 174.263 137.425,178.954 135.603,183.800 134.386 C 186.220 133.778,188.650 133.082,189.200 132.839 C 190.567 132.234,199.948 132.675,202.129 133.447 " stroke="none" fill="#fcfcfc" fill-rule="evenodd"></path><path id="path2" d="M189.200 132.839 C 188.650 133.082,186.220 133.778,183.800 134.386 C 178.954 135.603,174.263 137.425,171.552 139.144 C 169.342 140.546,161.496 151.140,159.217 155.800 C 154.864 164.700,155.692 179.124,160.971 186.376 C 161.702 187.379,162.703 189.010,163.195 190.000 C 165.435 194.500,172.066 201.036,176.573 203.187 C 187.151 208.234,209.355 206.956,216.071 200.914 C 217.022 200.059,218.790 198.591,220.000 197.651 C 223.007 195.317,224.963 192.756,226.446 189.212 C 227.134 187.568,228.480 185.079,229.438 183.680 C 231.380 180.845,231.647 180.071,232.637 174.411 C 233.580 169.025,232.708 161.548,230.724 158.012 C 230.042 156.795,228.557 154.075,227.425 151.967 C 221.775 141.448,216.951 137.296,207.720 135.009 C 205.564 134.475,203.048 133.772,202.129 133.447 C 199.948 132.675,190.567 132.234,189.200 132.839 " stroke="none" fill="#fcde44" fill-rule="evenodd"></path><path id="path3" d="M331.200 85.259 C 324.375 85.888,321.312 87.427,319.409 91.183 C 318.359 93.254,317.753 93.602,313.800 94.401 C 308.726 95.427,304.190 98.111,302.155 101.292 C 300.987 103.118,299.224 104.045,294.817 105.153 C 290.972 106.120,289.539 106.958,286.335 110.116 C 284.065 112.353,281.490 113.683,276.129 115.387 C 273.233 116.307,271.064 118.002,270.018 120.162 C 268.930 122.411,268.980 122.380,264.776 123.445 C 257.646 125.253,255.534 126.807,251.119 133.499 C 249.777 135.533,248.093 137.644,247.377 138.190 C 245.101 139.927,244.422 141.516,243.793 146.587 C 243.183 151.506,243.278 152.488,244.993 158.950 C 246.023 162.836,246.500 170.463,245.815 172.103 C 245.500 172.857,244.885 175.166,244.448 177.236 C 244.011 179.306,243.302 182.187,242.873 183.637 C 242.444 185.088,241.964 187.207,241.807 188.348 C 241.061 193.770,238.260 198.257,233.679 201.369 C 232.732 202.012,231.382 203.266,230.679 204.156 C 226.831 209.023,223.821 211.071,217.671 213.008 C 214.020 214.158,211.843 215.642,210.537 217.872 C 209.980 218.822,209.471 219.600,209.406 219.600 C 209.341 219.600,207.538 219.960,205.400 220.400 C 195.558 222.425,183.609 221.151,179.801 217.670 C 178.610 216.582,176.724 215.359,175.533 214.904 C 171.571 213.388,168.215 212.309,165.000 211.520 C 160.510 210.417,160.300 210.272,159.489 207.737 C 158.521 204.708,156.789 202.317,154.508 200.858 C 153.458 200.187,152.320 199.405,151.977 199.119 C 151.294 198.550,148.634 191.154,148.194 188.600 C 147.412 184.067,144.689 177.091,142.768 174.701 C 140.279 171.603,140.201 162.609,142.626 158.200 C 143.352 156.880,144.336 154.753,144.812 153.473 L 145.678 151.146 144.601 147.673 C 144.008 145.763,142.917 143.030,142.175 141.600 C 141.433 140.170,140.398 138.010,139.875 136.800 C 139.351 135.590,138.310 133.854,137.561 132.942 C 136.813 132.030,135.710 130.652,135.112 129.879 C 133.104 127.285,128.947 124.885,124.600 123.811 C 121.171 122.964,119.725 122.154,119.412 120.905 C 118.729 118.185,111.604 114.256,104.282 112.563 C 103.503 112.383,102.744 111.648,101.784 110.147 C 100.161 107.611,98.800 106.685,95.000 105.533 C 90.848 104.274,87.917 102.680,87.063 101.215 C 85.599 98.705,81.060 96.068,76.400 95.021 C 72.603 94.168,70.885 93.325,70.184 91.968 C 65.408 82.734,43.253 82.804,38.718 92.068 C 34.132 101.432,36.342 116.305,42.808 119.604 C 44.484 120.459,44.999 121.374,45.621 124.600 C 46.754 130.479,49.405 135.272,52.357 136.778 C 54.187 137.712,55.707 140.410,56.367 143.899 C 57.192 148.257,58.508 150.624,61.986 154.000 C 63.858 155.817,65.155 158.404,66.598 163.200 C 67.525 166.284,69.033 168.299,71.422 169.647 C 73.359 170.740,73.503 170.934,73.986 173.103 C 75.582 180.262,78.397 185.770,81.189 187.194 C 83.306 188.274,83.930 189.326,84.806 193.285 C 86.080 199.050,88.113 202.753,91.008 204.583 C 93.228 205.987,94.144 207.629,95.470 212.584 C 96.606 216.826,96.960 217.439,100.082 220.557 C 102.288 222.761,105.200 228.285,105.200 230.266 C 105.200 232.617,107.869 236.163,110.808 237.717 C 112.591 238.660,112.596 238.668,113.602 242.631 C 115.551 250.307,116.965 252.948,120.251 255.050 C 122.703 256.619,123.289 257.584,123.981 261.194 C 124.914 266.071,127.524 270.744,130.362 272.622 C 132.047 273.738,133.425 276.376,134.785 281.093 C 135.666 284.150,137.195 286.124,139.977 287.800 C 141.189 288.530,141.471 289.111,143.181 294.400 C 145.801 302.501,146.349 303.381,149.873 305.149 C 151.932 306.183,151.953 306.217,152.672 309.691 C 154.119 316.681,156.534 321.236,159.630 322.816 C 161.545 323.792,162.249 325.110,163.453 329.972 C 164.524 334.300,167.018 338.553,169.389 340.097 C 170.857 341.053,172.880 344.889,173.412 347.725 C 173.937 350.521,175.972 353.239,178.559 354.599 C 180.581 355.662,181.045 356.126,181.804 357.845 C 185.469 366.151,204.818 365.906,207.679 357.518 C 208.331 355.605,209.421 354.354,211.112 353.578 C 214.275 352.128,215.070 350.896,217.572 343.568 L 219.541 337.800 221.964 336.000 C 224.555 334.075,226.076 331.649,226.605 328.600 C 227.000 326.319,229.186 321.658,229.979 321.407 C 232.186 320.706,235.685 315.147,236.611 310.867 C 237.589 306.355,238.497 304.572,240.288 303.651 C 243.468 302.016,245.600 298.234,247.243 291.312 C 248.260 287.033,248.486 286.588,249.897 286.096 C 253.010 285.011,254.272 283.068,256.775 275.507 L 258.462 270.413 261.061 268.131 C 263.929 265.613,264.934 263.978,265.744 260.513 C 266.579 256.934,268.076 254.331,269.834 253.400 C 272.547 251.963,274.904 247.524,276.172 241.467 C 276.846 238.246,277.555 237.045,279.304 236.163 C 282.797 234.400,285.142 229.984,287.177 221.336 C 287.584 219.605,287.864 219.188,288.910 218.755 C 291.580 217.649,294.782 213.515,294.796 211.155 C 294.806 209.520,297.270 204.536,298.728 203.200 C 302.108 200.104,303.937 196.917,304.809 192.600 C 305.519 189.085,306.911 186.575,308.594 185.776 C 311.656 184.323,313.795 180.580,315.382 173.896 C 316.311 169.985,316.871 168.800,317.789 168.800 C 318.991 168.800,321.658 166.296,322.590 164.291 C 323.783 161.726,325.766 156.392,326.375 154.109 C 326.659 153.044,327.221 152.155,327.894 151.709 C 330.572 149.930,332.631 147.389,333.342 144.986 C 335.108 139.010,336.024 137.166,337.876 135.861 C 340.482 134.024,343.011 129.843,343.807 126.057 C 344.810 121.285,345.539 119.592,346.911 118.852 C 350.623 116.848,352.207 114.363,353.039 109.236 C 355.194 95.964,350.597 87.694,339.793 85.406 C 336.726 84.756,336.668 84.755,331.200 85.259 M58.863 90.765 C 60.741 91.549,62.805 92.813,64.200 94.034 C 66.554 96.094,69.038 97.521,71.800 98.400 C 74.698 99.322,77.214 100.807,79.604 103.004 C 82.197 105.387,85.705 107.310,90.600 109.030 C 93.261 109.966,94.170 110.530,96.000 112.382 C 98.756 115.171,99.985 116.020,103.000 117.215 C 108.550 119.415,111.706 121.238,114.004 123.572 C 115.903 125.500,116.878 126.124,119.650 127.181 C 124.488 129.028,132.411 135.525,135.350 140.057 C 136.526 141.871,137.158 150.074,136.548 155.600 C 134.847 170.988,136.449 182.142,141.410 189.453 C 141.914 190.196,143.162 192.827,144.184 195.301 C 147.514 203.364,147.608 203.524,150.499 206.088 C 152.001 207.420,153.684 209.283,154.238 210.229 C 155.656 212.649,157.824 214.475,160.609 215.595 C 163.975 216.950,166.699 218.608,168.846 220.610 C 172.693 224.196,181.161 225.801,196.000 225.755 C 209.921 225.712,213.647 224.926,217.761 221.166 C 219.300 219.759,221.525 218.430,225.463 216.564 C 231.636 213.639,231.775 213.540,234.263 210.272 C 236.228 207.691,237.954 206.069,240.603 204.315 C 242.886 202.803,243.491 201.771,246.150 194.857 C 247.365 191.699,248.640 188.729,248.984 188.257 C 252.345 183.648,252.978 181.812,253.620 174.802 C 254.173 168.767,253.932 161.167,252.999 155.200 C 252.021 148.945,252.780 142.172,254.791 139.217 C 258.272 134.102,264.130 129.134,268.419 127.661 C 272.038 126.418,274.004 125.243,276.069 123.089 C 277.777 121.308,278.724 120.765,283.707 118.715 C 289.824 116.197,291.779 115.052,292.938 113.305 C 294.126 111.517,296.465 110.092,300.052 108.972 C 304.166 107.688,307.747 105.741,309.600 103.781 C 311.587 101.679,314.524 99.878,318.000 98.629 C 321.888 97.232,324.017 95.968,325.666 94.076 C 327.448 92.033,334.795 89.209,336.928 89.748 C 338.789 90.218,341.573 92.378,342.395 93.990 C 342.853 94.888,344.082 96.566,345.127 97.720 C 347.443 100.277,348.179 101.920,347.834 103.761 C 347.541 105.324,345.366 109.631,342.766 113.800 C 341.614 115.647,340.738 117.688,339.764 120.800 C 338.872 123.650,337.523 125.768,335.178 128.000 C 333.027 130.047,331.453 132.964,329.555 138.418 C 328.353 141.875,328.012 142.424,325.596 144.800 C 323.463 146.898,322.701 148.006,321.649 150.537 C 318.661 157.730,317.619 159.647,315.583 161.693 C 313.333 163.955,312.010 166.267,311.023 169.660 C 310.179 172.565,307.958 176.217,306.035 177.863 C 304.246 179.394,301.662 184.151,300.424 188.195 C 299.370 191.635,298.896 192.375,295.809 195.400 C 293.553 197.611,293.208 198.194,291.432 202.800 C 288.677 209.949,288.176 210.891,286.584 211.916 C 284.895 213.004,283.081 215.730,282.163 218.558 C 280.997 222.153,278.492 226.690,276.578 228.674 C 274.312 231.023,272.619 233.877,271.768 236.783 C 270.753 240.252,269.321 242.701,266.982 244.966 C 264.622 247.252,262.348 251.565,260.954 256.400 C 260.285 258.718,259.873 259.326,257.158 262.000 C 254.498 264.619,253.956 265.406,252.885 268.200 C 249.902 275.982,249.207 277.266,246.618 279.778 C 244.375 281.954,244.008 282.545,243.005 285.600 C 241.407 290.467,240.233 292.596,237.741 295.148 C 235.327 297.621,233.164 301.613,232.215 305.350 C 231.438 308.407,229.937 310.926,228.283 311.948 C 225.782 313.494,222.983 318.881,221.200 325.580 C 220.902 326.698,220.269 327.739,219.499 328.380 C 216.114 331.192,214.887 332.757,213.794 335.651 C 211.556 341.575,209.838 344.431,206.726 347.400 C 204.548 349.478,203.354 351.041,202.096 353.461 L 200.400 356.721 198.100 356.953 C 189.152 357.855,189.373 357.907,187.638 354.485 C 186.323 351.889,184.070 349.465,181.973 348.390 C 179.956 347.355,179.677 346.913,178.012 342.097 C 175.694 335.397,174.489 333.366,171.384 330.932 C 169.635 329.561,168.620 327.619,167.173 322.869 C 166.170 319.578,164.033 316.039,161.884 314.112 C 160.005 312.427,158.748 310.197,157.230 305.855 C 155.836 301.867,155.043 300.584,152.376 298.000 C 150.866 296.537,150.168 295.338,148.651 291.600 C 145.696 284.319,144.909 282.948,142.795 281.396 C 140.453 279.677,139.967 278.945,138.810 275.400 C 137.186 270.424,134.959 266.198,133.138 264.639 C 130.897 262.721,129.350 260.323,128.409 257.308 C 127.162 253.313,125.762 250.717,123.485 248.176 C 120.795 245.173,120.007 243.861,118.213 239.400 C 116.433 234.971,115.365 233.316,113.074 231.439 C 111.465 230.121,111.073 229.416,108.982 224.091 C 106.458 217.664,105.418 215.807,103.580 214.449 C 101.758 213.102,100.111 210.592,99.390 208.065 C 98.293 204.219,95.807 199.538,93.644 197.247 C 91.061 194.510,89.821 192.378,88.556 188.503 C 87.372 184.878,86.486 183.345,83.962 180.558 C 82.074 178.474,80.621 175.735,78.570 170.400 C 77.615 167.915,76.920 166.893,74.525 164.452 C 72.159 162.039,71.436 160.985,70.552 158.652 C 68.303 152.721,66.837 149.979,64.688 147.689 C 61.701 144.505,61.086 143.497,59.692 139.495 C 58.211 135.247,57.129 133.358,54.333 130.143 C 52.258 127.758,50.878 125.192,48.552 119.400 C 47.772 117.458,46.737 115.856,45.170 114.171 C 41.059 109.747,39.560 103.435,41.568 99.007 C 45.114 91.186,52.006 87.902,58.863 90.765 " stroke="none" fill="#ccb4e4" fill-rule="evenodd"></path><path id="path4" d="M50.064 90.428 C 44.558 93.146,40.001 99.456,40.561 103.585 C 41.131 107.790,42.797 111.617,45.170 114.171 C 46.737 115.856,47.772 117.458,48.552 119.400 C 50.878 125.192,52.258 127.758,54.333 130.143 C 57.129 133.358,58.211 135.247,59.692 139.495 C 61.086 143.497,61.701 144.505,64.688 147.689 C 66.837 149.979,68.303 152.721,70.552 158.652 C 71.434 160.979,72.163 162.045,74.517 164.452 C 76.939 166.929,77.617 167.938,78.757 170.767 C 80.178 174.293,82.673 178.800,83.203 178.800 C 84.715 178.800,88.899 184.679,90.241 188.688 C 91.265 191.746,92.299 193.118,94.222 193.969 C 97.755 195.532,100.879 199.501,102.090 203.965 C 102.287 204.690,103.013 204.822,107.400 204.929 C 109.380 204.977,111.232 205.163,111.516 205.342 C 112.008 205.652,116.026 203.082,127.400 195.185 C 129.600 193.658,131.533 192.361,131.696 192.304 C 132.241 192.113,133.175 183.820,133.605 175.368 C 134.018 167.228,134.808 158.707,135.603 153.810 C 136.447 148.612,136.122 141.780,134.942 139.892 C 131.945 135.097,124.775 129.137,119.650 127.181 C 116.878 126.124,115.903 125.500,114.004 123.572 C 111.706 121.238,108.550 119.415,103.000 117.215 C 99.985 116.020,98.756 115.171,96.000 112.382 C 94.170 110.530,93.261 109.966,90.600 109.030 C 85.705 107.310,82.197 105.387,79.604 103.004 C 77.214 100.807,74.698 99.322,71.800 98.400 C 69.038 97.521,66.554 96.094,64.200 94.034 C 59.400 89.834,54.038 88.466,50.064 90.428 " stroke="none" fill="#fc045c" fill-rule="evenodd"></path></g></svg>